#!OML:ASF I:\Actors\actors\Patient Classification 2\Patient 1\Session 1\actor1.ASF
:FULLY-SPECIFIED
:DEGREES
929
root -0.632641 18.6808 5.685 1.80346 -5.12617 -0.952293
lowerback 1.56093 0.646464 0.0187115
upperback -2.13701 0.878409 0.555633
thorax -3.07713 0.444301 0.523148
lowerneck -11.3645 -1.28013 -1.8178
upperneck 25.3543 -2.26833 3.17509
head 9.97357 -0.87308 1.15294
rclavicle -1.70924e-014 -1.18277e-014
rhumerus -51.7598 -9.37999 -79.3882
rradius 45.8835
rwrist 19.0631
rhand -6.99175 -37.4074
rfingers 7.12502
rthumb 18.8788 -66.5113
lclavicle -1.70924e-014 -1.18277e-014
lhumerus -47.9632 7.72932 83.5657
lradius 41.1847
lwrist 2.2024
lhand -11.4783 -15.8837
lfingers 7.12502
lthumb 14.5597 13.5853
rfemur 0 0 0
rtibia 0
rfoot 0 0
rtoes 0
lfemur -2.86717 -6.6396 -14.2869
ltibia 20.4326
lfoot -24.8971 18.3534
ltoes -54.0855
930
root -0.632458 18.6801 5.69188 1.8067 -5.0829 -0.960747
lowerback 1.53675 0.700152 0.0606983
upperback -2.14679 0.950933 0.541452
thorax -3.07332 0.479343 0.482242
lowerneck -11.434 -1.33269 -1.89679
upperneck 25.4335 -2.33018 3.19086
head 10.0186 -0.90592 1.1649
rclavicle -7.91411e-015 -1.39149e-015
rhumerus -51.9334 -9.44475 -79.3719
rradius 45.8194
rwrist 19.0757
rhand -7.02958 -37.5584
rfingers 7.12502
rthumb 18.8424 -66.6658
lclavicle -7.91411e-015 -1.39149e-015
lhumerus -48.0126 7.66258 83.5552
lradius 41.2034
lwrist 1.98102
lhand -11.2944 -16.1616
lfingers 7.12502
lthumb 14.7369 13.2946
rfemur 0 0 0
rtibia 0
rfoot 0 0
rtoes 0
lfemur -2.85493 -6.7023 -14.2863
ltibia 20.4422
lfoot -24.9803 18.326
ltoes -53.9698
931
root -0.632404 18.6794 5.698 1.80778 -5.07949 -0.990735
lowerback 1.51701 0.755935 0.094375
upperback -2.16228 1.02651 0.544738
thorax -3.07829 0.516321 0.463736
lowerneck -11.4092 -1.37717 -1.91006
upperneck 25.4441 -2.37181 3.12129
head 10.0182 -0.934236 1.13791
rclavicle -3.85766e-015 -2.48481e-016
rhumerus -52.077 -9.56033 -79.3384
rradius 45.6766
rwrist 19.1649
rhand -7.21572 -37.765
rfingers 7.12502
rthumb 18.6633 -66.8897
lclavicle -3.85766e-015 -2.48481e-016
lhumerus -48.0677 7.67846 83.5386
lradius 41.2483
lwrist 1.66012
lhand -11.1106 -16.5492
lfingers 7.12502
lthumb 14.914 12.8939
rfemur 0 0 0
rtibia 0
rfoot 0 0
rtoes 0
lfemur -2.82945 -6.82111 -14.2734
ltibia 20.4492
lfoot -25.122 18.3756
ltoes -53.8557
932
root -0.634278 18.6792 5.70249 1.81485 -5.05238 -1.05698
lowerback 1.50668 0.80675 0.136861
upperback -2.18262 1.09588 0.551154
thorax -3.09333 0.550032 0.443614
lowerneck -11.3738 -1.44309 -1.95854
upperneck 25.4753 -2.46936 3.17397
head 10.0269 -0.977961 1.15346
rclavicle -8.5159e-015 -2.5345e-015
rhumerus -52.1682 -9.72705 -79.3339
rradius 45.4748
rwrist 19.2621
rhand -7.68669 -38.1141
rfingers 7.12502
rthumb 18.2103 -67.2817
lclavicle -8.5159e-015 -2.5345e-015
lhumerus -48.112 7.60512 83.5657
lradius 41.3239
lwrist 1.31392
lhand -10.944 -16.8991
lfingers 7.12502
lthumb 15.0744 12.5321
rfemur 0 0 0
rtibia 0
rfoot 0 0
rtoes 0
lfemur -2.82252 -6.80822 -14.1869
ltibia 20.4463
lfoot -25.0878 18.3589
ltoes -53.9262
933
root -0.636039 18.6786 5.70725 1.82786 -5.01967 -1.04612
lowerback 1.476 0.859478 0.112772
upperback -2.20209 1.16468 0.520306
thorax -3.09644 0.584542 0.422866
lowerneck -11.389 -1.52529 -2.03531
upperneck 25.5699 -2.61429 3.33556
head 10.0719 -1.03303 1.20666
rclavicle -1.61582e-014 -5.1684e-015
rhumerus -52.25 -9.91834 -79.3325
rradius 45.2947
rwrist 19.4301
rhand -7.67534 -37.6072
rfingers 7.12502
rthumb 18.2212 -66.7737
lclavicle -1.61582e-014 -5.1684e-015
lhumerus -48.1395 7.40687 83.6392
lradius 41.4385
lwrist 1.04309
lhand -10.7849 -17.1526
lfingers 7.12502
lthumb 15.2277 12.267
rfemur 0 0 0
rtibia 0
rfoot 0 0
rtoes 0
lfemur -2.82882 -6.78456 -14.1851
ltibia 20.447
lfoot -25.067 18.2808
ltoes -53.8851
934
root -0.63504 18.6773 5.71334 1.80997 -4.98376 -0.988032
lowerback 1.46235 0.901724 0.0619675
upperback -2.21432 1.21879 0.491539
thorax -3.10218 0.612371 0.419635
lowerneck -11.4111 -1.58869 -2.10503
upperneck 25.6741 -2.71475 3.42251
head 10.1194 -1.07512 1.23777
rclavicle -1.00976e-014 -3.85145e-015
rhumerus -52.2993 -10.0731 -79.2979
rradius 45.0544
rwrist 19.7602
rhand -7.65821 -37.288
rfingers 7.12502
rthumb 18.2377 -66.453
lclavicle -1.00976e-014 -3.85145e-015
lhumerus -48.1109 7.30765 83.7187
lradius 41.5077
lwrist 0.802605
lhand -10.5471 -17.4561
lfingers 7.12502
lthumb 15.4568 11.9459
rfemur 0 0 0
rtibia 0
rfoot 0 0
rtoes 0
lfemur -2.80486 -6.85803 -14.2667
ltibia 20.4639
lfoot -25.1365 18.2755
ltoes -53.7856
935
root -0.633283 18.6764 5.71909 1.7998 -4.91526 -0.996301
lowerback 1.46117 0.924179 0.065364
upperback -2.20461 1.249 0.497736
thorax -3.09182 0.627434 0.422956
lowerneck -11.4975 -1.64362 -2.19985
upperneck 25.7538 -2.78659 3.47529
head 10.1698 -1.10971 1.26401
rclavicle 7.87141e-015 -1.93815e-015
rhumerus -52.2655 -10.1733 -79.3073
rradius 44.8315
rwrist 20.1242
rhand -7.64044 -37.3927
rfingers 7.12502
rthumb 18.2548 -66.5561
lclavicle 7.87141e-015 -1.93815e-015
lhumerus -47.9584 7.35079 83.7824
lradius 41.4852
lwrist 0.404706
lhand -10.3106 -17.7795
lfingers 7.12502
lthumb 15.6846 11.6048
rfemur 0 0 0
rtibia 0
rfoot 0 0
rtoes 0
lfemur -2.80425 -6.90719 -14.2669
ltibia 20.4965
lfoot -25.1673 18.2735
ltoes -53.8158
936
root -0.632792 18.6766 5.72406 1.83444 -4.85439 -1.07094
lowerback 1.43187 0.938142 0.125637
upperback -2.17424 1.26964 0.516515
thorax -3.04323 0.636563 0.408464
lowerneck -11.6515 -1.7046 -2.30315
upperneck 25.7835 -2.8681 3.54988
head 10.2161 -1.14666 1.29743
rclavicle 5.85677e-015 7.05686e-015
rhumerus -52.1374 -10.2465 -79.4174
rradius 44.5151
rwrist 20.6049
rhand -8.08184 -37.4703
rfingers 7.12502
rthumb 17.8301 -66.6729
lclavicle 5.85677e-015 7.05686e-015
lhumerus -47.7439 7.32604 83.8984
lradius 41.5254
lwrist -0.0229221
lhand -10.2393 -17.7933
lfingers 7.12502
lthumb 15.7532 11.5856
rfemur 0 0 0
rtibia 0
rfoot 0 0
rtoes 0
lfemur -2.86103 -6.88835 -14.1739
ltibia 20.5449
lfoot -25.1506 18.2254
ltoes -53.8969
937
root -0.632248 18.6773 5.72926 1.88263 -4.77544 -1.15539
lowerback 1.36808 0.939063 0.20884
upperback -2.17279 1.27339 0.534457
thorax -3.00437 0.636792 0.381306
lowerneck -11.6942 -1.75726 -2.38886
upperneck 25.8059 -2.9387 3.60726
head 10.2374 -1.18019 1.32366
rclavicle 1.72279e-014 -1.04362e-015
rhumerus -52.0994 -10.3025 -79.5358
rradius 44.1179
rwrist 21.4201
rhand -8.93737 -37.0434
rfingers 7.12502
rthumb 17.0067 -66.3189
lclavicle 1.72279e-014 -1.04362e-015
lhumerus -47.6063 7.18316 84.0852
lradius 41.6067
lwrist -0.179926
lhand -10.3317 -17.735
lfingers 7.12502
lthumb 15.6642 11.6509
rfemur 0 0 0
rtibia 0
rfoot 0 0
rtoes 0
lfemur -2.94342 -6.86794 -14.0654
ltibia 20.6034
lfoot -25.093 18.163
ltoes -53.9956
938
root -0.631878 18.6781 5.73454 1.91132 -4.64589 -1.20128
lowerback 1.29819 0.925394 0.258079
upperback -2.19513 1.2564 0.540041
thorax -2.98696 0.627301 0.36116
lowerneck -11.6298 -1.80378 -2.46747
upperneck 25.8574 -3.00321 3.65745
head 10.248 -1.21215 1.34777
rclavicle -8.5128e-015 2.69602e-015
rhumerus -52.1522 -10.3349 -79.624
rradius 43.9299
rwrist 22.1057
rhand -9.21644 -36.679
rfingers 7.12502
rthumb 16.7381 -65.9774
lclavicle -8.5128e-015 2.69602e-015
lhumerus -47.533 7.06619 84.2446
lradius 41.5439
lwrist 0.0122167
lhand -10.4808 -18.4461
lfingers 7.12502
lthumb 15.5206 10.951
rfemur 0 0 0
rtibia 0
rfoot 0 0
rtoes 0
lfemur -3.01759 -6.8748 -13.9943
ltibia 20.6564
lfoot -25.0255 18.0829
ltoes -54.0927
939
root -0.632433 18.679 5.73803 1.92604 -4.53438 -1.20363
lowerback 1.26239 0.921038 0.267016
upperback -2.20335 1.25013 0.519968
thorax -2.97455 0.623751 0.336345
lowerneck -11.6377 -1.84892 -2.47668
upperneck 25.937 -3.06812 3.6581
head 10.2812 -1.24216 1.34214
rclavicle -5.23537e-015 -8.85213e-015
rhumerus -52.152 -10.2895 -79.79
rradius 43.8848
rwrist 22.1105
rhand -9.21778 -36.8256
rfingers 7.12502
rthumb 16.7368 -66.1242
lclavicle -5.23537e-015 -8.85213e-015
lhumerus -47.4196 7.01656 84.3468
lradius 41.2724
lwrist 0.518714
lhand -10.658 -20.2341
lfingers 7.12502
lthumb 15.3499 9.17616
rfemur 0 0 0
rtibia 0
rfoot 0 0
rtoes 0
lfemur -3.07209 -6.86024 -13.9679
ltibia 20.6898
lfoot -24.9538 18.0012
ltoes -54.1514
940
root -0.632849 18.6797 5.74028 1.97349 -4.46377 -1.18812
lowerback 1.24275 0.923349 0.258954
upperback -2.23416 1.25213 0.484071
thorax -2.9946 0.624483 0.303978
lowerneck -11.647 -1.87086 -2.35397
upperneck 25.9704 -3.09422 3.53196
head 10.292 -1.25631 1.2733
rclavicle -1.97581e-015 -6.78974e-015
rhumerus -52.1617 -10.2244 -80.0084
rradius 43.8938
rwrist 21.842
rhand -9.3026 -36.8888
rfingers 7.12502
rthumb 16.6551 -66.1942
lclavicle -1.97581e-015 -6.78974e-015
lhumerus -47.3035 6.88512 84.5299
lradius 41.4335
lwrist 0.609196
lhand -10.5772 -20.2775
lfingers 7.12502
lthumb 15.4278 9.12676
rfemur 0 0 0
rtibia 0
rfoot 0 0
rtoes 0
lfemur -3.14559 -6.84677 -13.9627
ltibia 20.7017
lfoot -24.9214 17.9368
ltoes -54.1424
941
root -0.632705 18.6804 5.7427 2.03736 -4.39089 -1.15558
lowerback 1.21054 0.907647 0.229287
upperback -2.28616 1.22949 0.446949
thorax -3.02976 0.6134 0.283399
lowerneck -11.5511 -1.86468 -2.21311
upperneck 25.9098 -3.07455 3.37577
head 10.2456 -1.25302 1.19653
rclavicle 5.66847e-016 1.12189e-014
rhumerus -52.1874 -10.1216 -80.2312
rradius 43.9544
rwrist 21.713
rhand -9.21772 -36.7802
rfingers 7.12502
rthumb 16.7368 -66.0788
lclavicle 5.66847e-016 1.12189e-014
lhumerus -47.2105 6.7285 84.7199
lradius 41.5751
lwrist 0.715359
lhand -10.5154 -20.3551
lfingers 7.12502
lthumb 15.4873 9.04453
rfemur 0 0 0
rtibia 0
rfoot 0 0
rtoes 0
lfemur -3.23325 -6.86033 -13.9802
ltibia 20.704
lfoot -24.9259 17.8925
ltoes -54.1349
942
root -0.632214 18.6807 5.74598 2.05682 -4.3249 -1.12075
lowerback 1.16957 0.885752 0.191594
upperback -2.29501 1.19832 0.418629
thorax -3.0158 0.598398 0.277234
lowerneck -11.525 -1.86892 -2.21268
upperneck 25.9018 -3.08145 3.37823
head 10.2378 -1.25627 1.19662
rclavicle -5.75311e-015 2.80783e-015
rhumerus -52.149 -9.9516 -80.4622
rradius 44.0126
rwrist 21.6638
rhand -8.88323 -37.0462
rfingers 7.12502
rthumb 17.0588 -66.3172
lclavicle -5.75311e-015 2.80783e-015
lhumerus -47.0987 6.57164 84.9277
lradius 41.7331
lwrist 0.812014
lhand -10.4093 -20.451
lfingers 7.12502
lthumb 15.5895 8.94069
rfemur 0 0 0
rtibia 0
rfoot 0 0
rtoes 0
lfemur -3.2639 -6.83693 -14.0087
ltibia 20.702
lfoot -24.864 17.8441
ltoes -54.2059
943
root -0.631366 18.6805 5.75053 2.04401 -4.29922 -1.11276
lowerback 1.14215 0.879735 0.180871
upperback -2.27699 1.18928 0.400083
thorax -2.98152 0.593935 0.265177
lowerneck -11.5417 -1.88139 -2.28829
upperneck 25.9108 -3.10694 3.47062
head 10.2481 -1.26454 1.23909
rclavicle -8.8001e-015 2.90723e-015
rhumerus -52.0642 -9.8005 -80.6913
rradius 44.0946
rwrist 21.725
rhand -9.29918 -36.1837
rfingers 7.12502
rthumb 16.6584 -65.4888
lclavicle -8.8001e-015 2.90723e-015
lhumerus -46.9681 6.4116 85.1582
lradius 41.9071
lwrist 0.895732
lhand -10.281 -20.6039
lfingers 7.12502
lthumb 15.713 8.77816
rfemur 0 0 0
rtibia 0
rfoot 0 0
rtoes 0
lfemur -3.2388 -6.80915 -14.0186
ltibia 20.7002
lfoot -24.8224 17.7988
ltoes -54.2375
